<svg width="1080" height="1080" viewBox="0 0 1080 1080" fill="none" xmlns="http://www.w3.org/2000/svg">
    <path d="M207.505 548.677C207.505 361.622 358.543 209.921 544.78 209.921H903.602V115H450.275C264.038 115 113 266.701 113 453.757V909.076H207.505V548.677Z" fill="#A5A5A5"/>
    <path d="M711.395 387.12C758.115 396.976 794.808 433.402 811.021 478.612L967.392 911.432V173.495C967.392 171.995 966.325 170.924 964.832 170.924H516.625C328.894 170.924 176.79 323.697 176.79 512.252V962.428C176.79 963.928 177.857 964.999 179.35 964.999H377.32C378.387 964.999 379.454 964.357 379.667 963.285L557.798 472.398C580.197 410.903 644.41 373.192 710.969 387.334L711.395 387.12Z" fill="#E50000"/>
    <path d="M239.719 572.675C239.719 385.62 390.757 233.918 576.994 233.918H967.602V170.924H514.275C328.038 170.924 177 322.625 177 509.681V964.999H239.719V572.675Z" fill="#A00000"/>
    <path d="M760.034 808.37H605.796L549.477 965H815.926L760.034 808.37Z" fill="#E50000"/>
    <path d="M605.799 794.229H759.823L745.317 749.447L732.303 709.593L699.024 609.316C693.904 593.674 671.718 593.674 666.598 609.316L638.438 695.666L620.732 749.447L606.012 794.229H605.799Z" fill="#A5A5A5"/>
    <path d="M745.53 749.446L732.303 709.807L745.316 749.446H745.53Z" fill="white"/>
    <path d="M745.316 749.446L732.303 709.807V709.593L745.316 749.446Z" fill="white"/>
    <path d="M760.034 794.228L745.314 749.446L760.034 794.228Z" fill="white"/>
    <path d="M620.732 749.446L638.438 695.665L605.799 794.228L620.732 749.446Z" fill="white"/>
    <path d="M808.888 472.398C789.688 419.474 739.555 384.12 683.45 384.12C627.344 384.12 577.424 419.26 558.225 472.184L379.454 964.785H549.478L605.797 808.156H760.035L815.928 964.785H967.392V911.218L808.674 472.398H808.888ZM622.01 744.947L638.224 695.665L666.383 609.315C671.503 593.674 693.689 593.674 698.809 609.315L732.089 709.378L743.609 744.732H621.797L622.01 744.947Z" fill="white"/>
</svg>
