<svg width="1080" height="1080" viewBox="0 0 1080 1080" fill="none" xmlns="http://www.w3.org/2000/svg">
    <path d="M246.387 547.657C246.387 382.608 379.656 248.753 543.983 248.753H860.59V165H460.596C296.269 165 163 298.854 163 463.903V865.655H246.387V547.657Z" fill="#A5A5A5"/>
    <path d="M690.996 405.106C732.219 413.802 764.595 445.943 778.901 485.834L916.875 867.734V216.613C916.875 215.29 915.934 214.345 914.616 214.345H519.14C353.495 214.345 219.285 349.144 219.285 515.517V912.731C219.285 914.054 220.226 914.999 221.544 914.999H396.224C397.165 914.999 398.106 914.432 398.294 913.487L555.469 480.351C575.233 426.091 631.891 392.817 690.62 405.295L690.996 405.106Z" fill="#E50000"/>
    <path d="M274.811 568.831C274.811 403.782 408.08 269.928 572.407 269.928H917.06V214.344H517.066C352.739 214.344 219.471 348.199 219.471 513.248V914.999H274.811V568.831Z" fill="#A00000"/>
    <path d="M733.912 776.797H597.82L548.127 915H783.229L733.912 776.797Z" fill="#E50000"/>
    <path d="M597.822 764.319H733.726L720.926 724.806L709.444 689.641L680.08 601.161C675.562 587.36 655.986 587.36 651.468 601.161L626.622 677.352L610.999 724.806L598.011 764.319H597.822Z" fill="#A5A5A5"/>
    <path d="M721.114 724.806L709.444 689.83L720.926 724.806H721.114Z" fill="white"/>
    <path d="M720.926 724.806L709.444 689.83V689.641L720.926 724.806Z" fill="white"/>
    <path d="M733.912 764.319L720.924 724.806L733.912 764.319Z" fill="white"/>
    <path d="M610.999 724.805L626.622 677.352L597.822 764.319L610.999 724.805Z" fill="white"/>
    <path d="M777.019 480.351C760.078 433.654 715.843 402.459 666.338 402.459C616.833 402.459 572.786 433.465 555.845 480.162L398.106 914.81H548.128L597.821 776.608H733.913L783.23 914.81H916.875V867.546L776.83 480.351H777.019ZM612.127 720.835L626.433 677.352L651.279 601.161C655.797 587.359 675.373 587.359 679.891 601.161L709.255 689.451L719.419 720.646H611.939L612.127 720.835Z" fill="white"/>
</svg>
